<svg width="1365" height="1365" viewBox="0 0 1365 1365" fill="none" xmlns="http://www.w3.org/2000/svg">
<path fill-rule="evenodd" clip-rule="evenodd" d="M1365 4.0625H79.6702V79.6845H4.0625V773.246H79.6702V848.868H306.493L306.492 1209.69H382.1V1285.32H457.707V1360.94H1213.78V1285.32H1289.39V1209.69H1365L1365 4.0625ZM306.493 697.624V155.307H155.278V697.624H306.493Z" fill="#0F172B"/>
<path d="M1165.51 906.36C1128.04 843.895 1018.82 671.385 990.17 626.21V379.167H1011.78C1023.24 379.167 1034.23 374.601 1042.34 366.475C1050.44 358.348 1055 347.326 1055 335.833C1055 324.341 1050.44 313.319 1042.34 305.192C1034.23 297.065 1023.24 292.5 1011.78 292.5H666.034C654.572 292.5 643.579 297.065 635.474 305.192C627.369 313.319 622.816 324.341 622.816 335.833C622.816 347.326 627.369 358.348 635.474 366.475C643.579 374.601 654.572 379.167 666.034 379.167H687.643V626.21C658.989 671.385 549.777 843.895 512.307 906.36C501.243 924.798 495.625 944.255 495.625 964.167C495.625 1023.9 544.094 1072.5 603.649 1072.5H1074.14C1133.72 1072.5 1182.19 1023.9 1182.19 964.167C1182.19 944.255 1176.57 924.798 1165.51 906.36ZM1074.1 985.833H603.67C591.764 985.833 582.061 976.127 582.061 964.167C582.061 960.202 583.509 955.803 586.361 951.058C628.175 881.357 765.932 664.3 767.315 662.112C771.745 655.135 774.079 647.075 774.079 638.82V379.232H903.733V638.82C903.728 647.062 906.067 655.134 910.475 662.09C911.858 664.278 1049.62 881.335 1091.43 951.037C1094.28 955.803 1095.73 960.202 1095.73 964.145C1095.73 966.994 1095.17 969.816 1094.09 972.448C1093 975.081 1091.41 977.473 1089.4 979.487C1087.39 981.502 1085.01 983.099 1082.38 984.188C1079.75 985.277 1076.94 985.836 1074.1 985.833Z" fill="#B9B390"/>
</svg>
